<mxfile host="Electron" agent="Mozilla/5.0 (Windows NT 10.0; Win64; x64) AppleWebKit/537.36 (KHTML, like Gecko) draw.io/28.0.6 Chrome/138.0.7204.100 Electron/37.2.3 Safari/537.36" version="28.0.6">
  <diagram name="Page-1" id="8YC887mAw0KpVXFB5g-d">
    <mxGraphModel dx="2403" dy="686" grid="0" gridSize="10" guides="1" tooltips="1" connect="1" arrows="1" fold="1" page="1" pageScale="1" pageWidth="1169" pageHeight="827" background="#808080" math="0" shadow="0">
      <root>
        <mxCell id="0" />
        <mxCell id="1" parent="0" />
        <mxCell id="w_Xj45Z8jAB2MF-sBWLv-46" value="" style="group" parent="1" vertex="1" connectable="0">
          <mxGeometry x="70" y="218" width="213" height="144" as="geometry" />
        </mxCell>
        <mxCell id="w_Xj45Z8jAB2MF-sBWLv-44" value="" style="rounded=0;whiteSpace=wrap;html=1;fillColor=none;strokeColor=#66FF66;strokeWidth=3;dashed=1;dashPattern=1 1;" parent="w_Xj45Z8jAB2MF-sBWLv-46" vertex="1">
          <mxGeometry width="213" height="144" as="geometry" />
        </mxCell>
        <mxCell id="w_Xj45Z8jAB2MF-sBWLv-19" value="Brushed Motor" style="ellipse;whiteSpace=wrap;html=1;aspect=fixed;" parent="w_Xj45Z8jAB2MF-sBWLv-46" vertex="1">
          <mxGeometry x="107" y="32" width="80" height="80" as="geometry" />
        </mxCell>
        <mxCell id="w_Xj45Z8jAB2MF-sBWLv-42" value="AS5047P" style="shape=hexagon;perimeter=hexagonPerimeter2;whiteSpace=wrap;html=1;fixedSize=1;fillColor=#ffcc99;strokeColor=#36393d;" parent="w_Xj45Z8jAB2MF-sBWLv-46" vertex="1">
          <mxGeometry x="7" y="43" width="87" height="58" as="geometry" />
        </mxCell>
        <mxCell id="w_Xj45Z8jAB2MF-sBWLv-45" value="Yaw Actuator" style="text;html=1;align=center;verticalAlign=middle;whiteSpace=wrap;rounded=0;fontSize=15;fontColor=#66FF66;fontStyle=1" parent="w_Xj45Z8jAB2MF-sBWLv-46" vertex="1">
          <mxGeometry x="38" y="112" width="129" height="30" as="geometry" />
        </mxCell>
        <mxCell id="w_Xj45Z8jAB2MF-sBWLv-1" value="ODrive Micro&lt;div&gt;(Hand)&lt;/div&gt;" style="rounded=1;whiteSpace=wrap;html=1;fillColor=#dae8fc;strokeColor=#6c8ebf;" parent="1" vertex="1">
          <mxGeometry x="759" y="470" width="70" height="60" as="geometry" />
        </mxCell>
        <mxCell id="w_Xj45Z8jAB2MF-sBWLv-2" value="ODrive Micro&lt;br&gt;(Pitch)" style="rounded=1;whiteSpace=wrap;html=1;fillColor=#dae8fc;strokeColor=#6c8ebf;" parent="1" vertex="1">
          <mxGeometry x="585" y="465" width="100" height="60" as="geometry" />
        </mxCell>
        <mxCell id="9Ifiy6c0lKa0k_pnXlT4-6" style="edgeStyle=orthogonalEdgeStyle;rounded=0;orthogonalLoop=1;jettySize=auto;html=1;exitX=0;exitY=0.5;exitDx=0;exitDy=0;" edge="1" parent="1" source="w_Xj45Z8jAB2MF-sBWLv-3" target="9Ifiy6c0lKa0k_pnXlT4-3">
          <mxGeometry relative="1" as="geometry" />
        </mxCell>
        <mxCell id="9Ifiy6c0lKa0k_pnXlT4-8" value="INA1,&lt;div&gt;INA2,&lt;div&gt;PWMA&lt;/div&gt;&lt;/div&gt;&lt;div&gt;(3 pin)&lt;/div&gt;" style="edgeLabel;html=1;align=center;verticalAlign=middle;resizable=0;points=[];" vertex="1" connectable="0" parent="9Ifiy6c0lKa0k_pnXlT4-6">
          <mxGeometry x="0.0579" y="1" relative="1" as="geometry">
            <mxPoint as="offset" />
          </mxGeometry>
        </mxCell>
        <mxCell id="w_Xj45Z8jAB2MF-sBWLv-3" value="Teensy 4.0" style="rounded=1;whiteSpace=wrap;html=1;fillColor=#d5e8d4;strokeColor=#82b366;" parent="1" vertex="1">
          <mxGeometry x="490" y="260" width="70" height="60" as="geometry" />
        </mxCell>
        <mxCell id="w_Xj45Z8jAB2MF-sBWLv-6" value="" style="group" parent="1" vertex="1" connectable="0">
          <mxGeometry x="495" y="150" width="60" height="110" as="geometry" />
        </mxCell>
        <mxCell id="w_Xj45Z8jAB2MF-sBWLv-4" value="" style="endArrow=classic;html=1;rounded=0;fillColor=#a20025;strokeColor=#FAD9D5;strokeWidth=3;" parent="w_Xj45Z8jAB2MF-sBWLv-6" edge="1">
          <mxGeometry width="50" height="50" relative="1" as="geometry">
            <mxPoint x="29.75999999999999" y="30" as="sourcePoint" />
            <mxPoint x="29.75999999999999" y="110" as="targetPoint" />
          </mxGeometry>
        </mxCell>
        <mxCell id="w_Xj45Z8jAB2MF-sBWLv-5" value="CAN1" style="text;html=1;align=center;verticalAlign=middle;whiteSpace=wrap;rounded=0;fillColor=#fad9d5;strokeColor=#ae4132;" parent="w_Xj45Z8jAB2MF-sBWLv-6" vertex="1">
          <mxGeometry width="60" height="30" as="geometry" />
        </mxCell>
        <mxCell id="w_Xj45Z8jAB2MF-sBWLv-12" value="" style="endArrow=classic;html=1;rounded=0;fillColor=#b1ddf0;strokeColor=#10739e;strokeWidth=3;entryX=0;entryY=0.5;entryDx=0;entryDy=0;exitX=1;exitY=0.5;exitDx=0;exitDy=0;" parent="1" source="w_Xj45Z8jAB2MF-sBWLv-2" target="w_Xj45Z8jAB2MF-sBWLv-1" edge="1">
          <mxGeometry width="50" height="50" relative="1" as="geometry">
            <mxPoint x="673" y="494" as="sourcePoint" />
            <mxPoint x="747" y="507" as="targetPoint" />
          </mxGeometry>
        </mxCell>
        <mxCell id="w_Xj45Z8jAB2MF-sBWLv-17" value="EMAXX&lt;div&gt;1500KV&lt;/div&gt;&lt;div&gt;Motor&lt;/div&gt;" style="ellipse;whiteSpace=wrap;html=1;aspect=fixed;" parent="1" vertex="1">
          <mxGeometry x="754" y="569" width="80" height="80" as="geometry" />
        </mxCell>
        <mxCell id="w_Xj45Z8jAB2MF-sBWLv-20" value="" style="endArrow=none;html=1;rounded=0;entryX=0.25;entryY=1;entryDx=0;entryDy=0;strokeWidth=4;strokeColor=#FF66FF;exitX=0.453;exitY=0.014;exitDx=0;exitDy=0;exitPerimeter=0;targetPerimeterSpacing=12;startArrow=classic;startFill=1;" parent="1" source="w_Xj45Z8jAB2MF-sBWLv-18" target="w_Xj45Z8jAB2MF-sBWLv-2" edge="1">
          <mxGeometry width="50" height="50" relative="1" as="geometry">
            <mxPoint x="574" y="711" as="sourcePoint" />
            <mxPoint x="602" y="524" as="targetPoint" />
          </mxGeometry>
        </mxCell>
        <mxCell id="w_Xj45Z8jAB2MF-sBWLv-22" value="" style="endArrow=none;html=1;rounded=0;entryX=0.457;entryY=0.983;entryDx=0;entryDy=0;strokeWidth=4;strokeColor=#FF66FF;entryPerimeter=0;exitX=0.471;exitY=0.013;exitDx=0;exitDy=0;exitPerimeter=0;targetPerimeterSpacing=12;startArrow=classic;startFill=1;" parent="1" source="w_Xj45Z8jAB2MF-sBWLv-17" target="w_Xj45Z8jAB2MF-sBWLv-1" edge="1">
          <mxGeometry width="50" height="50" relative="1" as="geometry">
            <mxPoint x="459" y="590" as="sourcePoint" />
            <mxPoint x="436" y="543" as="targetPoint" />
          </mxGeometry>
        </mxCell>
        <mxCell id="w_Xj45Z8jAB2MF-sBWLv-24" value="Sensor&lt;div&gt;&lt;span style=&quot;background-color: transparent; color: light-dark(rgb(0, 0, 0), rgb(255, 255, 255));&quot;&gt;Cable&lt;/span&gt;&lt;/div&gt;" style="text;html=1;align=center;verticalAlign=middle;whiteSpace=wrap;rounded=0;fillColor=#66FFFF;strokeColor=#10739e;glass=0;shadow=0;" parent="1" vertex="1">
          <mxGeometry x="-212" y="269" width="88.73" height="39" as="geometry" />
        </mxCell>
        <mxCell id="w_Xj45Z8jAB2MF-sBWLv-27" value="" style="endArrow=classic;dashed=1;html=1;strokeWidth=2;rounded=0;exitX=0.5;exitY=0;exitDx=0;exitDy=0;jumpSize=2;fillColor=#008a00;strokeColor=#66FFFF;entryX=0.162;entryY=0.996;entryDx=0;entryDy=0;entryPerimeter=0;endFill=1;" parent="1" source="w_Xj45Z8jAB2MF-sBWLv-23" target="w_Xj45Z8jAB2MF-sBWLv-2" edge="1">
          <mxGeometry width="50" height="50" relative="1" as="geometry">
            <mxPoint x="638" y="609" as="sourcePoint" />
            <mxPoint x="551" y="553" as="targetPoint" />
          </mxGeometry>
        </mxCell>
        <mxCell id="w_Xj45Z8jAB2MF-sBWLv-29" value="" style="group" parent="1" vertex="1" connectable="0">
          <mxGeometry x="256" y="668" width="339" height="144" as="geometry" />
        </mxCell>
        <mxCell id="w_Xj45Z8jAB2MF-sBWLv-28" value="" style="rounded=0;whiteSpace=wrap;html=1;fillColor=none;strokeColor=#66FF66;strokeWidth=3;dashed=1;dashPattern=1 1;" parent="w_Xj45Z8jAB2MF-sBWLv-29" vertex="1">
          <mxGeometry x="-142" width="481" height="144" as="geometry" />
        </mxCell>
        <mxCell id="w_Xj45Z8jAB2MF-sBWLv-18" value="Eaglepower&lt;div&gt;90KV&lt;/div&gt;&lt;div&gt;Motor&lt;/div&gt;" style="ellipse;whiteSpace=wrap;html=1;aspect=fixed;" parent="w_Xj45Z8jAB2MF-sBWLv-29" vertex="1">
          <mxGeometry x="221" y="24" width="80" height="80" as="geometry" />
        </mxCell>
        <mxCell id="w_Xj45Z8jAB2MF-sBWLv-23" value="On-board Encoder&lt;div&gt;&lt;font style=&quot;font-size: 10px;&quot;&gt;(Commutation)&lt;/font&gt;&lt;/div&gt;" style="shape=hexagon;perimeter=hexagonPerimeter2;whiteSpace=wrap;html=1;fixedSize=1;fillColor=#ffcc99;strokeColor=#36393d;" parent="w_Xj45Z8jAB2MF-sBWLv-29" vertex="1">
          <mxGeometry x="117" y="35" width="87" height="58" as="geometry" />
        </mxCell>
        <mxCell id="w_Xj45Z8jAB2MF-sBWLv-30" value="&lt;span&gt;&lt;font style=&quot;color: rgb(102, 255, 102);&quot;&gt;Pitch Actuator&lt;/font&gt;&lt;/span&gt;" style="text;html=1;align=center;verticalAlign=middle;whiteSpace=wrap;rounded=0;fontSize=15;fontColor=#FF3333;fontStyle=1" parent="w_Xj45Z8jAB2MF-sBWLv-29" vertex="1">
          <mxGeometry x="96" y="110" width="129" height="30" as="geometry" />
        </mxCell>
        <mxCell id="w_Xj45Z8jAB2MF-sBWLv-35" value="AS5047P&lt;div&gt;&lt;font style=&quot;font-size: 10px;&quot;&gt;(Load)&lt;/font&gt;&lt;/div&gt;" style="shape=hexagon;perimeter=hexagonPerimeter2;whiteSpace=wrap;html=1;fixedSize=1;fillColor=#ffcc99;strokeColor=#36393d;" parent="w_Xj45Z8jAB2MF-sBWLv-29" vertex="1">
          <mxGeometry x="13" y="35" width="87" height="58" as="geometry" />
        </mxCell>
        <mxCell id="w_Xj45Z8jAB2MF-sBWLv-40" value="SCL3300&lt;br&gt;Inclinometer&lt;div&gt;DIFFICULT WITH SLIP RING!&lt;/div&gt;" style="shape=hexagon;perimeter=hexagonPerimeter2;whiteSpace=wrap;html=1;fixedSize=1;fillColor=#ffcc99;strokeColor=#36393d;opacity=50;size=22.14285714285728;fontSize=7;" parent="w_Xj45Z8jAB2MF-sBWLv-29" vertex="1">
          <mxGeometry x="-96" y="35" width="87" height="58" as="geometry" />
        </mxCell>
        <mxCell id="w_Xj45Z8jAB2MF-sBWLv-36" value="" style="endArrow=classic;dashed=1;html=1;strokeWidth=2;rounded=0;exitX=0.5;exitY=0;exitDx=0;exitDy=0;jumpSize=2;fillColor=#008a00;strokeColor=#66FFFF;endFill=1;entryX=0;entryY=0.5;entryDx=0;entryDy=0;" parent="1" source="w_Xj45Z8jAB2MF-sBWLv-35" target="w_Xj45Z8jAB2MF-sBWLv-2" edge="1">
          <mxGeometry width="50" height="50" relative="1" as="geometry">
            <mxPoint x="496" y="953" as="sourcePoint" />
            <mxPoint x="480" y="335" as="targetPoint" />
          </mxGeometry>
        </mxCell>
        <mxCell id="9Ifiy6c0lKa0k_pnXlT4-12" value="SPI" style="edgeLabel;html=1;align=center;verticalAlign=middle;resizable=0;points=[];" vertex="1" connectable="0" parent="w_Xj45Z8jAB2MF-sBWLv-36">
          <mxGeometry x="-0.0649" y="-4" relative="1" as="geometry">
            <mxPoint as="offset" />
          </mxGeometry>
        </mxCell>
        <mxCell id="w_Xj45Z8jAB2MF-sBWLv-37" value="Motor Phase&lt;div&gt;Cables&lt;/div&gt;" style="text;html=1;align=center;verticalAlign=middle;whiteSpace=wrap;rounded=0;fillColor=#FF66FF;strokeColor=#10739e;glass=0;shadow=0;" parent="1" vertex="1">
          <mxGeometry x="-212" y="211" width="88.73" height="39" as="geometry" />
        </mxCell>
        <mxCell id="w_Xj45Z8jAB2MF-sBWLv-47" value="" style="shape=link;html=1;rounded=0;width=3.333333333333334;strokeColor=#6F0000;fillColor=#a20025;strokeWidth=3;exitX=0.5;exitY=1;exitDx=0;exitDy=0;" parent="1" source="w_Xj45Z8jAB2MF-sBWLv-48" edge="1">
          <mxGeometry width="100" relative="1" as="geometry">
            <mxPoint x="490" y="152" as="sourcePoint" />
            <mxPoint x="727" y="446" as="targetPoint" />
            <Array as="points">
              <mxPoint x="723" y="299" />
            </Array>
          </mxGeometry>
        </mxCell>
        <mxCell id="9Ifiy6c0lKa0k_pnXlT4-14" style="rounded=0;orthogonalLoop=1;jettySize=auto;html=1;exitX=0.25;exitY=1;exitDx=0;exitDy=0;entryX=0.5;entryY=0;entryDx=0;entryDy=0;strokeColor=#6F0000;strokeWidth=3;align=center;verticalAlign=middle;fontFamily=Helvetica;fontSize=11;fontColor=default;labelBackgroundColor=default;endArrow=classic;fillColor=#949494;shape=pipe;edgeStyle=orthogonalEdgeStyle;endFill=0;" edge="1" parent="1" source="w_Xj45Z8jAB2MF-sBWLv-48" target="9Ifiy6c0lKa0k_pnXlT4-13">
          <mxGeometry relative="1" as="geometry" />
        </mxCell>
        <mxCell id="w_Xj45Z8jAB2MF-sBWLv-48" value="12V, GND" style="text;html=1;align=center;verticalAlign=middle;whiteSpace=wrap;rounded=0;fillColor=#a20025;strokeColor=#6F0000;glass=0;shadow=0;fontColor=#ffffff;" parent="1" vertex="1">
          <mxGeometry x="677" y="158" width="88.73" height="39" as="geometry" />
        </mxCell>
        <mxCell id="w_Xj45Z8jAB2MF-sBWLv-49" value="" style="shape=link;html=1;rounded=0;width=3.333333333333334;strokeColor=#6F0000;entryX=1;entryY=0.25;entryDx=0;entryDy=0;fillColor=#a20025;strokeWidth=3;exitX=0;exitY=0.25;exitDx=0;exitDy=0;" parent="1" source="w_Xj45Z8jAB2MF-sBWLv-1" target="w_Xj45Z8jAB2MF-sBWLv-2" edge="1">
          <mxGeometry width="100" relative="1" as="geometry">
            <mxPoint x="462" y="398" as="sourcePoint" />
            <mxPoint x="504" y="506" as="targetPoint" />
            <Array as="points">
              <mxPoint x="725" y="446" />
            </Array>
          </mxGeometry>
        </mxCell>
        <mxCell id="w_Xj45Z8jAB2MF-sBWLv-50" value="" style="group" parent="1" vertex="1" connectable="0">
          <mxGeometry x="521" y="295" width="60" height="140" as="geometry" />
        </mxCell>
        <mxCell id="w_Xj45Z8jAB2MF-sBWLv-16" value="CAN2" style="text;html=1;align=center;verticalAlign=middle;whiteSpace=wrap;rounded=0;fillColor=#b1ddf0;strokeColor=#10739e;glass=0;shadow=0;" parent="1" vertex="1">
          <mxGeometry x="532" y="362" width="60" height="30" as="geometry" />
        </mxCell>
        <mxCell id="w_Xj45Z8jAB2MF-sBWLv-8" value="" style="endArrow=classic;html=1;rounded=0;fillColor=#b1ddf0;strokeColor=#10739e;strokeWidth=3;exitX=0.944;exitY=0.944;exitDx=0;exitDy=0;exitPerimeter=0;entryX=0.5;entryY=0;entryDx=0;entryDy=0;" parent="1" source="w_Xj45Z8jAB2MF-sBWLv-3" edge="1" target="w_Xj45Z8jAB2MF-sBWLv-2">
          <mxGeometry width="50" height="50" relative="1" as="geometry">
            <mxPoint x="513" y="319" as="sourcePoint" />
            <mxPoint x="557" y="435" as="targetPoint" />
          </mxGeometry>
        </mxCell>
        <mxCell id="9Ifiy6c0lKa0k_pnXlT4-5" style="edgeStyle=orthogonalEdgeStyle;rounded=0;orthogonalLoop=1;jettySize=auto;html=1;entryX=1;entryY=0.5;entryDx=0;entryDy=0;" edge="1" parent="1" source="9Ifiy6c0lKa0k_pnXlT4-3" target="w_Xj45Z8jAB2MF-sBWLv-19">
          <mxGeometry relative="1" as="geometry" />
        </mxCell>
        <mxCell id="9Ifiy6c0lKa0k_pnXlT4-3" value="TB67H420FTG Driver" style="rounded=1;whiteSpace=wrap;html=1;fillColor=#dae8fc;strokeColor=#6c8ebf;" vertex="1" parent="1">
          <mxGeometry x="316" y="260" width="100" height="60" as="geometry" />
        </mxCell>
        <mxCell id="9Ifiy6c0lKa0k_pnXlT4-7" style="edgeStyle=orthogonalEdgeStyle;rounded=0;orthogonalLoop=1;jettySize=auto;html=1;exitX=0.25;exitY=0;exitDx=0;exitDy=0;entryX=0.451;entryY=-0.024;entryDx=0;entryDy=0;entryPerimeter=0;strokeColor=#6F0000;strokeWidth=3;align=center;verticalAlign=middle;fontFamily=Helvetica;fontSize=11;fontColor=default;labelBackgroundColor=default;endArrow=classic;fillColor=#a20025;shape=link;" edge="1" parent="1" source="w_Xj45Z8jAB2MF-sBWLv-48" target="9Ifiy6c0lKa0k_pnXlT4-3">
          <mxGeometry relative="1" as="geometry" />
        </mxCell>
        <mxCell id="9Ifiy6c0lKa0k_pnXlT4-9" style="edgeStyle=orthogonalEdgeStyle;rounded=0;orthogonalLoop=1;jettySize=auto;html=1;exitX=0.5;exitY=1;exitDx=0;exitDy=0;entryX=0.25;entryY=1;entryDx=0;entryDy=0;dashed=1;strokeColor=#66FFFF;strokeWidth=2;align=center;verticalAlign=middle;fontFamily=Helvetica;fontSize=11;fontColor=default;labelBackgroundColor=default;jumpSize=2;endArrow=classic;endFill=1;fillColor=#008a00;" edge="1" parent="1" source="w_Xj45Z8jAB2MF-sBWLv-42" target="w_Xj45Z8jAB2MF-sBWLv-3">
          <mxGeometry relative="1" as="geometry">
            <Array as="points">
              <mxPoint x="121" y="374" />
              <mxPoint x="508" y="374" />
              <mxPoint x="508" y="320" />
            </Array>
          </mxGeometry>
        </mxCell>
        <mxCell id="9Ifiy6c0lKa0k_pnXlT4-11" value="SPI&lt;div&gt;(4 pin)&lt;/div&gt;" style="edgeLabel;html=1;align=center;verticalAlign=middle;resizable=0;points=[];" vertex="1" connectable="0" parent="9Ifiy6c0lKa0k_pnXlT4-9">
          <mxGeometry x="-0.0932" y="-3" relative="1" as="geometry">
            <mxPoint as="offset" />
          </mxGeometry>
        </mxCell>
        <mxCell id="9Ifiy6c0lKa0k_pnXlT4-15" style="edgeStyle=orthogonalEdgeStyle;rounded=0;orthogonalLoop=1;jettySize=auto;html=1;exitX=0;exitY=0.5;exitDx=0;exitDy=0;entryX=1;entryY=0.5;entryDx=0;entryDy=0;strokeColor=#FF3333;" edge="1" parent="1" source="9Ifiy6c0lKa0k_pnXlT4-13" target="w_Xj45Z8jAB2MF-sBWLv-3">
          <mxGeometry relative="1" as="geometry" />
        </mxCell>
        <mxCell id="9Ifiy6c0lKa0k_pnXlT4-16" value="5V" style="edgeLabel;html=1;align=center;verticalAlign=middle;resizable=0;points=[];" vertex="1" connectable="0" parent="9Ifiy6c0lKa0k_pnXlT4-15">
          <mxGeometry x="0.3943" y="-3" relative="1" as="geometry">
            <mxPoint x="8" y="3" as="offset" />
          </mxGeometry>
        </mxCell>
        <mxCell id="9Ifiy6c0lKa0k_pnXlT4-18" style="edgeStyle=orthogonalEdgeStyle;rounded=0;orthogonalLoop=1;jettySize=auto;html=1;exitX=0;exitY=0.25;exitDx=0;exitDy=0;entryX=0.5;entryY=0;entryDx=0;entryDy=0;strokeColor=#FF3333;" edge="1" parent="1" source="9Ifiy6c0lKa0k_pnXlT4-13" target="w_Xj45Z8jAB2MF-sBWLv-42">
          <mxGeometry relative="1" as="geometry">
            <Array as="points">
              <mxPoint x="581" y="275" />
              <mxPoint x="581" y="241" />
              <mxPoint x="121" y="241" />
            </Array>
          </mxGeometry>
        </mxCell>
        <mxCell id="9Ifiy6c0lKa0k_pnXlT4-19" value="5V&lt;br&gt;(2 pin)" style="edgeLabel;html=1;align=center;verticalAlign=middle;resizable=0;points=[];" vertex="1" connectable="0" parent="9Ifiy6c0lKa0k_pnXlT4-18">
          <mxGeometry x="-0.2999" y="-1" relative="1" as="geometry">
            <mxPoint as="offset" />
          </mxGeometry>
        </mxCell>
        <mxCell id="9Ifiy6c0lKa0k_pnXlT4-13" value="12V to 5V Buck" style="rounded=1;whiteSpace=wrap;html=1;fillColor=#fff2cc;strokeColor=#d6b656;" vertex="1" parent="1">
          <mxGeometry x="595" y="260" width="100" height="60" as="geometry" />
        </mxCell>
      </root>
    </mxGraphModel>
  </diagram>
</mxfile>
